<?xml version="1.0" encoding="iso-8859-1"?>
<!-- Generator: Adobe Illustrator 18.0.0, SVG Export Plug-In . SVG Version: 6.00 Build 0)  -->
<!DOCTYPE svg PUBLIC "-//W3C//DTD SVG 1.1//EN" "http://www.w3.org/Graphics/SVG/1.1/DTD/svg11.dtd">
<svg version="1.1" id="Capa_1" xmlns="http://www.w3.org/2000/svg" xmlns:xlink="http://www.w3.org/1999/xlink" x="0px" y="0px"
	 viewBox="0 0 490 490" style="enable-background:new 0 0 490 490;" xml:space="preserve">
<g>
	<path d="M449.739,259.991H40.26c-4.418,0-8,3.581-8,8V375.18c0,59,48,107,107,107h211.48c59,0,107-48,107-107V267.991
		C457.739,263.572,454.157,259.991,449.739,259.991z M135,416.058c0,9.649-7.851,17.5-17.5,17.5s-17.5-7.851-17.5-17.5v-109
		c0-9.649,7.851-17.5,17.5-17.5s17.5,7.851,17.5,17.5V416.058z M220,416.058c0,9.649-7.851,17.5-17.5,17.5s-17.5-7.851-17.5-17.5
		v-109c0-9.649,7.851-17.5,17.5-17.5s17.5,7.851,17.5,17.5V416.058z M305,416.058c0,9.649-7.851,17.5-17.5,17.5
		s-17.5-7.851-17.5-17.5v-109c0-9.649,7.851-17.5,17.5-17.5s17.5,7.851,17.5,17.5V416.058z M390,416.058
		c0,9.649-7.851,17.5-17.5,17.5s-17.5-7.851-17.5-17.5v-109c0-9.649,7.851-17.5,17.5-17.5s17.5,7.851,17.5,17.5V416.058z"/>
	<path d="M458.833,170.721h-41.81L338.856,23.918c-5.287-9.93-15.565-16.099-26.822-16.099c-4.943,0-9.872,1.233-14.256,3.567
		c-14.78,7.87-20.401,26.298-12.531,41.077l62.966,118.257H141.786l62.968-118.257c7.869-14.781,2.247-33.208-12.533-41.078
		c-4.383-2.333-9.311-3.566-14.255-3.566c-11.257,0-21.535,6.169-26.823,16.1L72.977,170.721h-41.81
		C13.954,170.721,0,184.674,0,201.887s13.954,31.167,31.167,31.167h427.666c17.213,0,31.167-13.954,31.167-31.167
		S476.046,170.721,458.833,170.721z M96.334,215.76c-7.663,0-13.873-6.211-13.873-13.873c0-7.661,6.21-13.873,13.873-13.873
		s13.873,6.212,13.873,13.873C110.207,209.549,103.997,215.76,96.334,215.76z M393.666,215.76c-7.663,0-13.873-6.211-13.873-13.873
		c0-7.661,6.21-13.873,13.873-13.873c7.663,0,13.873,6.212,13.873,13.873C407.539,209.549,401.329,215.76,393.666,215.76z"/>
</g>
<g>
</g>
<g>
</g>
<g>
</g>
<g>
</g>
<g>
</g>
<g>
</g>
<g>
</g>
<g>
</g>
<g>
</g>
<g>
</g>
<g>
</g>
<g>
</g>
<g>
</g>
<g>
</g>
<g>
</g>
</svg>
